<?xml version="1.0" encoding="UTF-8"?>
<svg xmlns="http://www.w3.org/2000/svg" xmlns:xlink="http://www.w3.org/1999/xlink" width="299pt" height="250pt" viewBox="0 0 299 250" version="1.1">
<defs>
<filter id="alpha" filterUnits="objectBoundingBox" x="0%" y="0%" width="100%" height="100%">
  <feColorMatrix type="matrix" in="SourceGraphic" values="0 0 0 0 1 0 0 0 0 1 0 0 0 0 1 0 0 0 1 0"/>
</filter>
<mask id="mask0">
  <g filter="url(#alpha)">
<rect x="0" y="0" width="299" height="250" style="fill:rgb(0%,0%,0%);fill-opacity:0.101961;stroke:none;"/>
  </g>
</mask>
<clipPath id="clip1">
  <rect x="0" y="0" width="299" height="250"/>
</clipPath>
<g id="surface5" clip-path="url(#clip1)">
<path style=" stroke:none;fill-rule:nonzero;fill:rgb(0%,0%,0%);fill-opacity:1;" d="M 198.691406 20.679688 C 198.691406 20.679688 203.570312 34.585938 200.566406 36.726562 C 197.566406 38.863281 210.699219 56.335938 210.699219 56.335938 L 226.460938 52.058594 L 217.828125 37.4375 C 217.828125 37.4375 216.703125 22.820312 216.703125 20.679688 C 216.703125 18.542969 198.691406 20.679688 198.691406 20.679688 Z M 198.691406 20.679688 "/>
</g>
</defs>
<g id="surface1">
<path style=" stroke:none;fill-rule:nonzero;fill:rgb(18.431373%,18.039216%,25.490196%);fill-opacity:1;" d="M 13.894531 238.214844 C 18.039062 245.917969 26.84375 249.226562 26.84375 249.226562 C 26.84375 249.226562 28.921875 240.042969 24.773438 232.339844 C 20.625 224.636719 11.824219 221.328125 11.824219 221.328125 C 11.824219 221.328125 9.746094 230.511719 13.894531 238.214844 Z M 13.894531 238.214844 "/>
<path style=" stroke:none;fill-rule:nonzero;fill:rgb(42.352941%,38.823529%,100%);fill-opacity:1;" d="M 16.746094 235.679688 C 24.230469 240.191406 27.117188 249.152344 27.117188 249.152344 C 27.117188 249.152344 17.859375 250.800781 10.371094 246.289062 C 2.882812 241.777344 0 232.816406 0 232.816406 C 0 232.816406 9.257812 231.167969 16.746094 235.679688 Z M 16.746094 235.679688 "/>
<path style=" stroke:none;fill-rule:nonzero;fill:rgb(94.901961%,94.901961%,94.901961%);fill-opacity:1;" d="M 137.902344 12 L 184.621094 12 L 184.621094 12.667969 L 137.902344 12.667969 Z M 137.902344 12 "/>
<path style=" stroke:none;fill-rule:nonzero;fill:rgb(94.901961%,94.901961%,94.901961%);fill-opacity:1;" d="M 171.273438 12.503906 L 171.941406 12.503906 L 171.941406 18.6875 L 171.273438 18.6875 Z M 171.273438 12.503906 "/>
<path style=" stroke:none;fill-rule:nonzero;fill:rgb(94.901961%,94.901961%,94.901961%);fill-opacity:1;" d="M 150.917969 12.503906 L 151.585938 12.503906 L 151.585938 18.6875 L 150.917969 18.6875 Z M 150.917969 12.503906 "/>
<path style=" stroke:none;fill-rule:nonzero;fill:rgb(94.901961%,94.901961%,94.901961%);fill-opacity:1;" d="M 161.597656 44.085938 L 208.316406 44.085938 L 208.316406 44.753906 L 161.597656 44.753906 Z M 161.597656 44.085938 "/>
<path style=" stroke:none;fill-rule:nonzero;fill:rgb(94.901961%,94.901961%,94.901961%);fill-opacity:1;" d="M 174.277344 38.070312 L 174.945312 38.070312 L 174.945312 44.253906 L 174.277344 44.253906 Z M 174.277344 38.070312 "/>
<path style=" stroke:none;fill-rule:nonzero;fill:rgb(94.901961%,94.901961%,94.901961%);fill-opacity:1;" d="M 194.632812 38.070312 L 195.300781 38.070312 L 195.300781 44.253906 L 194.632812 44.253906 Z M 194.632812 38.070312 "/>
<path style=" stroke:none;fill-rule:nonzero;fill:rgb(94.901961%,94.901961%,94.901961%);fill-opacity:1;" d="M 223.664062 59.125 L 270.382812 59.125 L 270.382812 59.796875 L 223.664062 59.796875 Z M 223.664062 59.125 "/>
<path style=" stroke:none;fill-rule:nonzero;fill:rgb(94.901961%,94.901961%,94.901961%);fill-opacity:1;" d="M 236.347656 53.109375 L 237.015625 53.109375 L 237.015625 59.292969 L 236.347656 59.292969 Z M 236.347656 53.109375 "/>
<path style=" stroke:none;fill-rule:nonzero;fill:rgb(94.901961%,94.901961%,94.901961%);fill-opacity:1;" d="M 256.703125 53.109375 L 257.371094 53.109375 L 257.371094 59.292969 L 256.703125 59.292969 Z M 256.703125 53.109375 "/>
<path style=" stroke:none;fill-rule:nonzero;fill:rgb(94.901961%,94.901961%,94.901961%);fill-opacity:1;" d="M 218.992188 214.207031 L 265.710938 214.207031 L 265.710938 214.875 L 218.992188 214.875 Z M 218.992188 214.207031 "/>
<path style=" stroke:none;fill-rule:nonzero;fill:rgb(94.901961%,94.901961%,94.901961%);fill-opacity:1;" d="M 231.675781 208.191406 L 232.34375 208.191406 L 232.34375 214.375 L 231.675781 214.375 Z M 231.675781 208.191406 "/>
<path style=" stroke:none;fill-rule:nonzero;fill:rgb(94.901961%,94.901961%,94.901961%);fill-opacity:1;" d="M 252.03125 208.191406 L 252.699219 208.191406 L 252.699219 214.375 L 252.03125 214.375 Z M 252.03125 208.191406 "/>
<path style=" stroke:none;fill-rule:nonzero;fill:rgb(94.901961%,94.901961%,94.901961%);fill-opacity:1;" d="M 139.238281 106.921875 L 185.957031 106.921875 L 185.957031 107.589844 L 139.238281 107.589844 Z M 139.238281 106.921875 "/>
<path style=" stroke:none;fill-rule:nonzero;fill:rgb(94.901961%,94.901961%,94.901961%);fill-opacity:1;" d="M 151.917969 100.90625 L 152.585938 100.90625 L 152.585938 107.089844 L 151.917969 107.089844 Z M 151.917969 100.90625 "/>
<path style=" stroke:none;fill-rule:nonzero;fill:rgb(94.901961%,94.901961%,94.901961%);fill-opacity:1;" d="M 172.273438 100.90625 L 172.941406 100.90625 L 172.941406 107.089844 L 172.273438 107.089844 Z M 172.273438 100.90625 "/>
<path style=" stroke:none;fill-rule:nonzero;fill:rgb(94.901961%,94.901961%,94.901961%);fill-opacity:1;" d="M 153.921875 187.46875 L 200.640625 187.46875 L 200.640625 188.136719 L 153.921875 188.136719 Z M 153.921875 187.46875 "/>
<path style=" stroke:none;fill-rule:nonzero;fill:rgb(94.901961%,94.901961%,94.901961%);fill-opacity:1;" d="M 166.601562 181.453125 L 167.269531 181.453125 L 167.269531 187.636719 L 166.601562 187.636719 Z M 166.601562 181.453125 "/>
<path style=" stroke:none;fill-rule:nonzero;fill:rgb(94.901961%,94.901961%,94.901961%);fill-opacity:1;" d="M 186.957031 181.453125 L 187.625 181.453125 L 187.625 187.636719 L 186.957031 187.636719 Z M 186.957031 181.453125 "/>
<path style=" stroke:none;fill-rule:nonzero;fill:rgb(94.901961%,94.901961%,94.901961%);fill-opacity:1;" d="M 228.671875 163.070312 L 275.390625 163.070312 L 275.390625 163.738281 L 228.671875 163.738281 Z M 228.671875 163.070312 "/>
<path style=" stroke:none;fill-rule:nonzero;fill:rgb(94.901961%,94.901961%,94.901961%);fill-opacity:1;" d="M 241.351562 157.054688 L 242.019531 157.054688 L 242.019531 163.238281 L 241.351562 163.238281 Z M 241.351562 157.054688 "/>
<path style=" stroke:none;fill-rule:nonzero;fill:rgb(94.901961%,94.901961%,94.901961%);fill-opacity:1;" d="M 261.707031 157.054688 L 262.375 157.054688 L 262.375 163.238281 L 261.707031 163.238281 Z M 261.707031 157.054688 "/>
<path style=" stroke:none;fill-rule:nonzero;fill:rgb(18.431373%,18.039216%,25.490196%);fill-opacity:1;" d="M 120.820312 234.6875 L 41.804688 234.6875 L 41.804688 234.117188 L 120.253906 234.117188 L 120.253906 206.503906 L 48.449219 206.503906 L 44.960938 199.226562 L 45.472656 198.980469 L 48.804688 205.933594 L 120.820312 205.933594 Z M 120.820312 234.6875 "/>
<path style=" stroke:none;fill-rule:nonzero;fill:rgb(24.705882%,23.921569%,33.72549%);fill-opacity:1;" d="M 58.289062 242.65625 C 58.289062 245.960938 55.617188 248.636719 52.320312 248.636719 C 49.023438 248.636719 46.351562 245.960938 46.351562 242.65625 C 46.351562 239.355469 49.023438 236.679688 52.320312 236.679688 C 55.617188 236.679688 58.289062 239.355469 58.289062 242.65625 Z M 58.289062 242.65625 "/>
<path style=" stroke:none;fill-rule:nonzero;fill:rgb(24.705882%,23.921569%,33.72549%);fill-opacity:1;" d="M 117.125 242.65625 C 117.125 245.960938 114.453125 248.636719 111.15625 248.636719 C 107.859375 248.636719 105.1875 245.960938 105.1875 242.65625 C 105.1875 239.355469 107.859375 236.679688 111.15625 236.679688 C 114.453125 236.679688 117.125 239.355469 117.125 242.65625 Z M 117.125 242.65625 "/>
<path style=" stroke:none;fill-rule:nonzero;fill:rgb(24.705882%,23.921569%,33.72549%);fill-opacity:1;" d="M 184.207031 115.691406 C 184.207031 117.738281 182.550781 119.394531 180.511719 119.394531 C 178.46875 119.394531 176.816406 117.738281 176.816406 115.691406 C 176.816406 113.648438 178.46875 111.992188 180.511719 111.992188 C 182.550781 111.992188 184.207031 113.648438 184.207031 115.691406 Z M 184.207031 115.691406 "/>
<path style=" stroke:none;fill-rule:nonzero;fill:rgb(18.431373%,18.039216%,25.490196%);fill-opacity:1;" d="M 129.273438 197.109375 L 40.457031 197.109375 L 21.238281 134.195312 L 149.0625 134.195312 L 148.949219 134.566406 Z M 40.878906 196.539062 L 128.855469 196.539062 L 148.289062 134.765625 L 22.007812 134.765625 Z M 40.878906 196.539062 "/>
<path style=" stroke:none;fill-rule:nonzero;fill:rgb(94.901961%,94.901961%,94.901961%);fill-opacity:1;" d="M 122.339844 193.835938 L 44.332031 193.835938 L 27.449219 138.039062 L 139.722656 138.039062 L 139.621094 138.367188 Z M 122.339844 193.835938 "/>
<path style=" stroke:none;fill-rule:nonzero;fill:rgb(18.431373%,18.039216%,25.490196%);fill-opacity:1;" d="M 150.65625 128.578125 L 150.105469 128.429688 L 153.859375 114.269531 L 175.679688 114.269531 L 175.679688 114.839844 L 154.296875 114.839844 Z M 150.65625 128.578125 "/>
<path style=" stroke:none;fill-rule:nonzero;fill:rgb(18.431373%,18.039216%,25.490196%);fill-opacity:1;" d="M 27.449219 153.269531 L 142.675781 153.269531 L 142.675781 153.839844 L 27.449219 153.839844 Z M 27.449219 153.269531 "/>
<path style=" stroke:none;fill-rule:nonzero;fill:rgb(18.431373%,18.039216%,25.490196%);fill-opacity:1;" d="M 33.855469 174.246094 L 136.078125 174.246094 L 136.078125 174.816406 L 33.855469 174.816406 Z M 33.855469 174.246094 "/>
<path style=" stroke:none;fill-rule:nonzero;fill:rgb(18.431373%,18.039216%,25.490196%);fill-opacity:1;" d="M 84.867188 134.480469 L 85.433594 134.480469 L 85.433594 196.824219 L 84.867188 196.824219 Z M 84.867188 134.480469 "/>
<path style=" stroke:none;fill-rule:nonzero;fill:rgb(18.431373%,18.039216%,25.490196%);fill-opacity:1;" d="M 106.804688 196.804688 L 110.886719 134.464844 L 111.453125 134.5 L 107.371094 196.84375 Z M 106.804688 196.804688 "/>
<path style=" stroke:none;fill-rule:nonzero;fill:rgb(18.431373%,18.039216%,25.490196%);fill-opacity:1;" d="M 58.859375 134.5 L 59.425781 134.464844 L 63.484375 196.808594 L 62.917969 196.84375 Z M 58.859375 134.5 "/>
<path style=" stroke:none;fill-rule:nonzero;fill:rgb(18.431373%,18.039216%,25.490196%);fill-opacity:1;" d="M 0 248.996094 L 299 248.996094 L 299 249.664062 L 0 249.664062 Z M 0 248.996094 "/>
<path style=" stroke:none;fill-rule:nonzero;fill:rgb(62.745098%,38.039216%,41.568627%);fill-opacity:1;" d="M 198.691406 20.679688 C 198.691406 20.679688 203.570312 34.585938 200.566406 36.726562 C 197.566406 38.863281 210.699219 56.335938 210.699219 56.335938 L 226.460938 52.058594 L 217.828125 37.4375 C 217.828125 37.4375 216.703125 22.820312 216.703125 20.679688 C 216.703125 18.542969 198.691406 20.679688 198.691406 20.679688 Z M 198.691406 20.679688 "/>
<use xlink:href="#surface5" mask="url(#mask0)"/>
<path style=" stroke:none;fill-rule:nonzero;fill:rgb(18.431373%,18.039216%,25.490196%);fill-opacity:1;" d="M 190.503906 119.804688 C 190.503906 119.804688 189.078125 137.632812 190.503906 146.902344 C 191.925781 156.171875 194.0625 181.84375 194.0625 181.84375 C 194.0625 181.84375 194.0625 230.335938 201.894531 231.050781 C 209.726562 231.765625 215.425781 232.476562 216.136719 229.625 C 216.847656 226.773438 212.574219 225.347656 214.710938 223.917969 C 216.847656 222.492188 217.558594 217.5 214.710938 211.796875 C 211.863281 206.089844 214.710938 148.328125 214.710938 148.328125 L 228.242188 184.699219 C 228.242188 184.699219 229.664062 214.648438 231.089844 218.929688 C 232.511719 223.207031 229.664062 231.050781 234.648438 231.765625 C 239.632812 232.476562 245.328125 228.199219 248.175781 226.773438 C 251.023438 225.347656 243.90625 225.347656 245.328125 224.632812 C 246.753906 223.917969 251.023438 221.78125 249.601562 221.066406 C 248.175781 220.355469 246.753906 186.125 246.753906 186.125 C 246.753906 186.125 242.835938 113.03125 237.851562 110.175781 C 232.867188 107.324219 229.664062 112.238281 229.664062 112.238281 Z M 190.503906 119.804688 "/>
<path style=" stroke:none;fill-rule:nonzero;fill:rgb(18.431373%,18.039216%,25.490196%);fill-opacity:1;" d="M 203.320312 228.199219 L 203.320312 233.902344 C 203.320312 233.902344 196.910156 249.410156 203.320312 249.410156 C 209.726562 249.410156 214.710938 251.019531 214.710938 248.878906 L 214.710938 229.625 Z M 203.320312 228.199219 "/>
<path style=" stroke:none;fill-rule:nonzero;fill:rgb(18.431373%,18.039216%,25.490196%);fill-opacity:1;" d="M 245.328125 228.1875 L 245.328125 233.894531 C 245.328125 233.894531 251.738281 249.402344 245.328125 249.402344 C 238.921875 249.402344 233.9375 251.007812 233.9375 248.867188 L 233.9375 229.613281 Z M 245.328125 228.1875 "/>
<path style=" stroke:none;fill-rule:nonzero;fill:rgb(62.745098%,38.039216%,41.568627%);fill-opacity:1;" d="M 221.476562 18.183594 C 221.476562 25.273438 215.738281 31.019531 208.660156 31.019531 C 201.582031 31.019531 195.84375 25.273438 195.84375 18.183594 C 195.84375 11.09375 201.582031 5.347656 208.660156 5.347656 C 215.738281 5.347656 221.476562 11.09375 221.476562 18.183594 Z M 221.476562 18.183594 "/>
<path style=" stroke:none;fill-rule:nonzero;fill:rgb(42.352941%,38.823529%,100%);fill-opacity:1;" d="M 204.742188 42.074219 C 204.742188 42.074219 208.304688 52.769531 214 50.632812 L 219.695312 48.492188 L 229.664062 116.953125 C 229.664062 116.953125 221.832031 128.363281 210.441406 121.230469 C 199.046875 114.097656 204.742188 42.074219 204.742188 42.074219 Z M 204.742188 42.074219 "/>
<path style=" stroke:none;fill-rule:nonzero;fill:rgb(24.705882%,23.921569%,33.72549%);fill-opacity:1;" d="M 214.710938 39.933594 L 217.917969 33.160156 C 217.917969 33.160156 236.785156 42.074219 239.632812 44.925781 C 242.480469 47.777344 242.480469 52.058594 242.480469 52.058594 L 237.496094 69.886719 C 237.496094 69.886719 238.921875 109.105469 238.921875 110.535156 C 238.921875 111.960938 243.90625 119.804688 240.34375 116.953125 C 236.785156 114.097656 236.074219 111.246094 233.222656 115.527344 C 230.375 119.804688 223.96875 124.796875 223.96875 124.796875 Z M 214.710938 39.933594 "/>
<path style=" stroke:none;fill-rule:nonzero;fill:rgb(62.745098%,38.039216%,41.568627%);fill-opacity:1;" d="M 239.632812 91.28125 L 237.496094 111.246094 C 237.496094 111.246094 224.679688 122.65625 227.527344 123.371094 C 230.375 124.082031 231.800781 121.230469 231.800781 121.230469 C 231.800781 121.230469 236.785156 126.222656 239.632812 123.371094 C 242.480469 120.515625 249.601562 93.417969 249.601562 93.417969 Z M 239.632812 91.28125 "/>
<path style=" stroke:none;fill-rule:nonzero;fill:rgb(18.431373%,18.039216%,25.490196%);fill-opacity:1;" d="M 208.933594 0.0429688 C 206.089844 -0.0585938 203.050781 -0.109375 200.65625 1.425781 C 199.554688 2.195312 198.585938 3.140625 197.796875 4.230469 C 195.460938 7.183594 193.445312 10.898438 194.3125 14.566406 L 195.320312 14.171875 C 195.320312 15.152344 195.101562 16.117188 194.683594 17 C 194.824219 16.589844 195.300781 17.253906 195.171875 17.671875 L 194.0625 21.316406 C 195.886719 20.648438 198.152344 22 198.429688 23.925781 C 198.558594 19.695312 198.996094 14.84375 202.425781 12.363281 C 204.152344 11.113281 206.339844 10.734375 208.445312 10.394531 C 210.386719 10.082031 212.421875 9.785156 214.28125 10.425781 C 216.140625 11.066406 217.726562 12.96875 217.304688 14.894531 C 218.160156 14.597656 219.121094 15.195312 219.542969 16 C 219.96875 16.800781 219.988281 17.75 220.003906 18.65625 C 220.917969 19.304688 221.957031 18.019531 222.328125 16.960938 C 223.203125 14.480469 223.980469 11.839844 223.507812 9.25 C 223.039062 6.664062 220.933594 4.1875 218.304688 4.179688 C 218.625 3.828125 218.792969 3.367188 218.78125 2.894531 L 216.613281 2.710938 C 217.164062 2.632812 217.667969 2.367188 218.042969 1.953125 C 217.175781 2.914062 210.339844 0.09375 208.933594 0.0429688 Z M 208.933594 0.0429688 "/>
<path style=" stroke:none;fill-rule:nonzero;fill:rgb(24.705882%,23.921569%,33.72549%);fill-opacity:1;" d="M 208.304688 37.796875 C 208.304688 37.796875 202.507812 32.105469 200.421875 32.453125 C 198.335938 32.804688 195.488281 37.796875 195.488281 37.796875 C 195.488281 37.796875 178.398438 43.5 179.113281 49.207031 C 179.824219 54.910156 187.65625 82.722656 187.65625 82.722656 C 187.65625 82.722656 194.0625 116.238281 188.367188 119.804688 C 182.671875 123.371094 215.425781 132.640625 216.136719 128.363281 C 216.847656 124.082031 218.273438 81.296875 216.136719 74.878906 C 214 68.460938 208.304688 37.796875 208.304688 37.796875 Z M 208.304688 37.796875 "/>
<path style=" stroke:none;fill-rule:nonzero;fill:rgb(24.705882%,23.921569%,33.72549%);fill-opacity:1;" d="M 233.222656 49.207031 L 242.027344 49.207031 C 242.027344 49.207031 248.175781 76.304688 248.886719 79.15625 C 249.601562 82.007812 251.023438 95.558594 250.3125 95.558594 C 249.601562 95.558594 235.359375 92.707031 235.359375 94.84375 Z M 233.222656 49.207031 "/>
<path style=" stroke:none;fill-rule:nonzero;fill:rgb(94.901961%,94.901961%,94.901961%);fill-opacity:1;" d="M 232.925781 116.308594 L 199.222656 116.308594 C 195.933594 101.15625 195.660156 86.515625 199.222656 72.527344 L 232.925781 72.527344 C 227.488281 86.261719 227.148438 100.804688 232.925781 116.308594 Z M 232.925781 116.308594 "/>
<path style=" stroke:none;fill-rule:nonzero;fill:rgb(62.745098%,38.039216%,41.568627%);fill-opacity:1;" d="M 185.519531 97.699219 L 195.488281 101.976562 C 195.488281 101.976562 214.710938 104.828125 214.710938 96.984375 C 214.710938 89.140625 195.488281 93.417969 195.488281 93.417969 L 189.078125 91.367188 Z M 185.519531 97.699219 "/>
<path style=" stroke:none;fill-rule:nonzero;fill:rgb(24.705882%,23.921569%,33.72549%);fill-opacity:1;" d="M 187.65625 44.925781 L 179.113281 47.066406 L 172.703125 84.859375 C 172.703125 84.859375 170.566406 94.84375 174.128906 95.558594 C 177.6875 96.269531 187.65625 101.976562 187.65625 101.976562 C 187.65625 101.976562 189.078125 91.28125 191.925781 91.28125 L 184.808594 85.574219 L 189.078125 60.613281 Z M 187.65625 44.925781 "/>
<path style=" stroke:none;fill-rule:nonzero;fill:rgb(94.901961%,94.901961%,94.901961%);fill-opacity:1;" d="M 20.105469 117.949219 L 66.824219 117.949219 L 66.824219 118.617188 L 20.105469 118.617188 Z M 20.105469 117.949219 "/>
<path style=" stroke:none;fill-rule:nonzero;fill:rgb(94.901961%,94.901961%,94.901961%);fill-opacity:1;" d="M 32.785156 111.933594 L 33.453125 111.933594 L 33.453125 118.117188 L 32.785156 118.117188 Z M 32.785156 111.933594 "/>
<path style=" stroke:none;fill-rule:nonzero;fill:rgb(94.901961%,94.901961%,94.901961%);fill-opacity:1;" d="M 53.140625 111.933594 L 53.808594 111.933594 L 53.808594 118.117188 L 53.140625 118.117188 Z M 53.140625 111.933594 "/>
<path style=" stroke:none;fill-rule:nonzero;fill:rgb(94.901961%,94.901961%,94.901961%);fill-opacity:1;" d="M 36.457031 19.019531 L 83.175781 19.019531 L 83.175781 19.6875 L 36.457031 19.6875 Z M 36.457031 19.019531 "/>
<path style=" stroke:none;fill-rule:nonzero;fill:rgb(94.901961%,94.901961%,94.901961%);fill-opacity:1;" d="M 69.828125 19.519531 L 70.496094 19.519531 L 70.496094 25.703125 L 69.828125 25.703125 Z M 69.828125 19.519531 "/>
<path style=" stroke:none;fill-rule:nonzero;fill:rgb(94.901961%,94.901961%,94.901961%);fill-opacity:1;" d="M 49.472656 19.519531 L 50.140625 19.519531 L 50.140625 25.703125 L 49.472656 25.703125 Z M 49.472656 19.519531 "/>
<path style=" stroke:none;fill-rule:nonzero;fill:rgb(94.901961%,94.901961%,94.901961%);fill-opacity:1;" d="M 83.507812 84.863281 L 130.226562 84.863281 L 130.226562 85.53125 L 83.507812 85.53125 Z M 83.507812 84.863281 "/>
<path style=" stroke:none;fill-rule:nonzero;fill:rgb(94.901961%,94.901961%,94.901961%);fill-opacity:1;" d="M 116.878906 85.363281 L 117.546875 85.363281 L 117.546875 91.546875 L 116.878906 91.546875 Z M 116.878906 85.363281 "/>
<path style=" stroke:none;fill-rule:nonzero;fill:rgb(94.901961%,94.901961%,94.901961%);fill-opacity:1;" d="M 96.523438 85.363281 L 97.191406 85.363281 L 97.191406 91.546875 L 96.523438 91.546875 Z M 96.523438 85.363281 "/>
<path style=" stroke:none;fill-rule:nonzero;fill:rgb(94.901961%,94.901961%,94.901961%);fill-opacity:1;" d="M 4.085938 84.527344 L 50.804688 84.527344 L 50.804688 85.195312 L 4.085938 85.195312 Z M 4.085938 84.527344 "/>
<path style=" stroke:none;fill-rule:nonzero;fill:rgb(94.901961%,94.901961%,94.901961%);fill-opacity:1;" d="M 37.457031 85.03125 L 38.125 85.03125 L 38.125 91.210938 L 37.457031 91.210938 Z M 37.457031 85.03125 "/>
<path style=" stroke:none;fill-rule:nonzero;fill:rgb(94.901961%,94.901961%,94.901961%);fill-opacity:1;" d="M 17.101562 85.03125 L 17.769531 85.03125 L 17.769531 91.210938 L 17.101562 91.210938 Z M 17.101562 85.03125 "/>
<path style=" stroke:none;fill-rule:nonzero;fill:rgb(94.901961%,94.901961%,94.901961%);fill-opacity:1;" d="M 60.148438 51.105469 L 106.867188 51.105469 L 106.867188 51.773438 L 60.148438 51.773438 Z M 60.148438 51.105469 "/>
<path style=" stroke:none;fill-rule:nonzero;fill:rgb(94.901961%,94.901961%,94.901961%);fill-opacity:1;" d="M 72.832031 45.089844 L 73.5 45.089844 L 73.5 51.273438 L 72.832031 51.273438 Z M 72.832031 45.089844 "/>
<path style=" stroke:none;fill-rule:nonzero;fill:rgb(94.901961%,94.901961%,94.901961%);fill-opacity:1;" d="M 93.1875 45.089844 L 93.855469 45.089844 L 93.855469 51.273438 L 93.1875 51.273438 Z M 93.1875 45.089844 "/>
</g>
</svg>
