<?xml version="1.0" encoding="UTF-8"?>
<svg xmlns="http://www.w3.org/2000/svg" xmlns:xlink="http://www.w3.org/1999/xlink" width="250pt" height="113pt" viewBox="0 0 250 113" version="1.1">
<g id="surface1">
<path style=" stroke:none;fill-rule:nonzero;fill:rgb(94.901961%,94.901961%,94.901961%);fill-opacity:1;" d="M 218.433594 45.488281 L 225.988281 45.488281 L 225.988281 71.648438 L 218.433594 71.648438 Z M 218.433594 45.488281 "/>
<path style=" stroke:none;fill-rule:nonzero;fill:rgb(94.901961%,94.901961%,94.901961%);fill-opacity:1;" d="M 230.980469 66.726562 L 212.605469 44.863281 L 175.71875 45.199219 L 153.34375 66.996094 L 153.796875 67.289062 L 153.636719 67.289062 L 153.636719 112.628906 L 230.929688 112.628906 L 230.929688 67.289062 Z M 230.980469 66.726562 "/>
<path style=" stroke:none;fill-rule:nonzero;fill:rgb(90.196078%,90.196078%,90.196078%);fill-opacity:1;" d="M 212.625 44.910156 L 189.667969 71.828125 L 189.667969 112.628906 L 230.929688 112.628906 L 230.929688 66.707031 Z M 212.625 44.910156 "/>
<path style=" stroke:none;fill-rule:nonzero;fill:rgb(24.705882%,23.921569%,33.72549%);fill-opacity:1;" d="M 206.230469 90.066406 L 214.65625 90.066406 L 214.65625 97.515625 L 206.230469 97.515625 Z M 206.230469 90.066406 "/>
<path style=" stroke:none;fill-rule:nonzero;fill:rgb(24.705882%,23.921569%,33.72549%);fill-opacity:1;" d="M 206.230469 77.167969 L 214.65625 77.167969 L 214.65625 84.5 L 206.230469 84.5 Z M 206.230469 77.167969 "/>
<path style=" stroke:none;fill-rule:nonzero;fill:rgb(100%,100%,100%);fill-opacity:1;" d="M 206.230469 90.066406 L 214.65625 90.066406 L 214.65625 97.515625 L 206.230469 97.515625 Z M 206.230469 90.066406 "/>
<path style=" stroke:none;fill-rule:nonzero;fill:rgb(100%,100%,100%);fill-opacity:1;" d="M 206.230469 77.167969 L 214.65625 77.167969 L 214.65625 84.5 L 206.230469 84.5 Z M 206.230469 77.167969 "/>
<path style=" stroke:none;fill-rule:nonzero;fill:rgb(100%,100%,100%);fill-opacity:1;" d="M 168.78125 88.085938 L 177.207031 88.085938 L 177.207031 95.539062 L 168.78125 95.539062 Z M 168.78125 88.085938 "/>
<path style=" stroke:none;fill-rule:nonzero;fill:rgb(100%,100%,100%);fill-opacity:1;" d="M 168.78125 75.191406 L 177.207031 75.191406 L 177.207031 82.523438 L 168.78125 82.523438 Z M 168.78125 75.191406 "/>
<path style=" stroke:none;fill-rule:nonzero;fill:rgb(94.901961%,94.901961%,94.901961%);fill-opacity:1;" d="M 158.816406 45.488281 L 166.371094 45.488281 L 166.371094 71.648438 L 158.816406 71.648438 Z M 158.816406 45.488281 "/>
<path style=" stroke:none;fill-rule:nonzero;fill:rgb(94.901961%,94.901961%,94.901961%);fill-opacity:1;" d="M 171.359375 66.726562 L 152.984375 44.863281 L 116.101562 45.199219 L 93.726562 66.996094 L 94.179688 67.289062 L 94.015625 67.289062 L 94.015625 112.628906 L 171.308594 112.628906 L 171.308594 67.289062 Z M 171.359375 66.726562 "/>
<path style=" stroke:none;fill-rule:nonzero;fill:rgb(90.196078%,90.196078%,90.196078%);fill-opacity:1;" d="M 153.003906 44.910156 L 130.046875 71.828125 L 130.046875 112.628906 L 171.308594 112.628906 L 171.308594 66.707031 Z M 153.003906 44.910156 "/>
<path style=" stroke:none;fill-rule:nonzero;fill:rgb(24.705882%,23.921569%,33.72549%);fill-opacity:1;" d="M 146.609375 90.066406 L 155.039062 90.066406 L 155.039062 97.515625 L 146.609375 97.515625 Z M 146.609375 90.066406 "/>
<path style=" stroke:none;fill-rule:nonzero;fill:rgb(24.705882%,23.921569%,33.72549%);fill-opacity:1;" d="M 146.609375 77.167969 L 155.039062 77.167969 L 155.039062 84.5 L 146.609375 84.5 Z M 146.609375 77.167969 "/>
<path style=" stroke:none;fill-rule:nonzero;fill:rgb(100%,100%,100%);fill-opacity:1;" d="M 146.609375 90.066406 L 155.039062 90.066406 L 155.039062 97.515625 L 146.609375 97.515625 Z M 146.609375 90.066406 "/>
<path style=" stroke:none;fill-rule:nonzero;fill:rgb(100%,100%,100%);fill-opacity:1;" d="M 146.609375 77.167969 L 155.039062 77.167969 L 155.039062 84.5 L 146.609375 84.5 Z M 146.609375 77.167969 "/>
<path style=" stroke:none;fill-rule:nonzero;fill:rgb(100%,100%,100%);fill-opacity:1;" d="M 109.164062 88.085938 L 117.589844 88.085938 L 117.589844 95.539062 L 109.164062 95.539062 Z M 109.164062 88.085938 "/>
<path style=" stroke:none;fill-rule:nonzero;fill:rgb(100%,100%,100%);fill-opacity:1;" d="M 109.164062 75.191406 L 117.589844 75.191406 L 117.589844 82.523438 L 109.164062 82.523438 Z M 109.164062 75.191406 "/>
<path style=" stroke:none;fill-rule:nonzero;fill:rgb(94.901961%,94.901961%,94.901961%);fill-opacity:1;" d="M 95.230469 22.914062 L 105.324219 22.914062 L 105.324219 57.867188 L 95.230469 57.867188 Z M 95.230469 22.914062 "/>
<path style=" stroke:none;fill-rule:nonzero;fill:rgb(94.901961%,94.901961%,94.901961%);fill-opacity:1;" d="M 111.992188 51.292969 L 87.4375 22.078125 L 38.152344 22.527344 L 8.253906 51.65625 L 8.859375 52.042969 L 8.640625 52.042969 L 8.640625 112.628906 L 111.925781 112.628906 L 111.925781 52.042969 Z M 111.992188 51.292969 "/>
<path style=" stroke:none;fill-rule:nonzero;fill:rgb(90.196078%,90.196078%,90.196078%);fill-opacity:1;" d="M 87.464844 22.140625 L 56.789062 58.109375 L 56.789062 112.628906 L 111.925781 112.628906 L 111.925781 51.265625 Z M 87.464844 22.140625 "/>
<path style=" stroke:none;fill-rule:nonzero;fill:rgb(24.705882%,23.921569%,33.72549%);fill-opacity:1;" d="M 78.921875 82.476562 L 90.179688 82.476562 L 90.179688 92.433594 L 78.921875 92.433594 Z M 78.921875 82.476562 "/>
<path style=" stroke:none;fill-rule:nonzero;fill:rgb(24.705882%,23.921569%,33.72549%);fill-opacity:1;" d="M 78.921875 65.246094 L 90.179688 65.246094 L 90.179688 75.042969 L 78.921875 75.042969 Z M 78.921875 65.246094 "/>
<path style=" stroke:none;fill-rule:nonzero;fill:rgb(100%,100%,100%);fill-opacity:1;" d="M 78.921875 82.476562 L 90.179688 82.476562 L 90.179688 92.433594 L 78.921875 92.433594 Z M 78.921875 82.476562 "/>
<path style=" stroke:none;fill-rule:nonzero;fill:rgb(100%,100%,100%);fill-opacity:1;" d="M 78.921875 65.246094 L 90.179688 65.246094 L 90.179688 75.042969 L 78.921875 75.042969 Z M 78.921875 65.246094 "/>
<path style=" stroke:none;fill-rule:nonzero;fill:rgb(100%,100%,100%);fill-opacity:1;" d="M 28.878906 79.835938 L 40.140625 79.835938 L 40.140625 89.792969 L 28.878906 89.792969 Z M 28.878906 79.835938 "/>
<path style=" stroke:none;fill-rule:nonzero;fill:rgb(100%,100%,100%);fill-opacity:1;" d="M 28.878906 62.605469 L 40.140625 62.605469 L 40.140625 72.402344 L 28.878906 72.402344 Z M 28.878906 62.605469 "/>
<path style=" stroke:none;fill-rule:nonzero;fill:rgb(24.705882%,23.921569%,33.72549%);fill-opacity:1;" d="M 0 112.402344 L 241.46875 112.402344 L 241.46875 112.90625 L 0 112.90625 Z M 0 112.402344 "/>
<path style=" stroke:none;fill-rule:nonzero;fill:rgb(24.705882%,23.921569%,33.72549%);fill-opacity:1;" d="M 45.332031 88.3125 C 45.332031 80.097656 42.070312 73.4375 38.042969 73.4375 C 34.019531 73.4375 30.753906 80.097656 30.753906 88.3125 C 30.753906 96.53125 34.019531 103.191406 38.042969 103.191406 C 42.070312 103.191406 45.332031 96.53125 45.332031 88.3125 Z M 45.332031 88.3125 "/>
<path style=" stroke:none;fill-rule:nonzero;fill:rgb(42.352941%,38.823529%,100%);fill-opacity:1;" d="M 38.71875 112.664062 C 35.796875 95.144531 38.6875 77.6875 38.71875 77.511719 L 39.285156 77.609375 C 39.257812 77.78125 36.382812 95.148438 39.285156 112.570312 Z M 38.71875 112.664062 "/>
<path style=" stroke:none;fill-rule:nonzero;fill:rgb(42.352941%,38.823529%,100%);fill-opacity:1;" d="M 37.871094 88.640625 L 44.460938 85.113281 L 44.734375 85.621094 L 38.140625 89.148438 Z M 37.871094 88.640625 "/>
<path style=" stroke:none;fill-rule:nonzero;fill:rgb(42.352941%,38.823529%,100%);fill-opacity:1;" d="M 30.914062 87.390625 L 31.183594 86.882812 L 37.777344 90.410156 L 37.503906 90.917969 Z M 30.914062 87.390625 "/>
<path style=" stroke:none;fill-rule:nonzero;fill:rgb(42.352941%,38.823529%,100%);fill-opacity:1;" d="M 34.785156 65.371094 C 34.785156 49.300781 28.402344 36.273438 20.53125 36.273438 C 12.65625 36.273438 6.273438 49.300781 6.273438 65.371094 C 6.273438 81.441406 12.65625 94.46875 20.53125 94.46875 C 28.402344 94.46875 34.785156 81.441406 34.785156 65.371094 Z M 34.785156 65.371094 "/>
<path style=" stroke:none;fill-rule:nonzero;fill:rgb(24.705882%,23.921569%,33.72549%);fill-opacity:1;" d="M 22.117188 112.953125 C 16.414062 78.730469 22.058594 44.632812 22.117188 44.292969 L 22.6875 44.386719 C 22.628906 44.726562 17 78.734375 22.6875 112.855469 Z M 22.117188 112.953125 "/>
<path style=" stroke:none;fill-rule:nonzero;fill:rgb(24.705882%,23.921569%,33.72549%);fill-opacity:1;" d="M 20.320312 66.253906 L 33.210938 59.355469 L 33.484375 59.863281 L 20.589844 66.761719 Z M 20.320312 66.253906 "/>
<path style=" stroke:none;fill-rule:nonzero;fill:rgb(24.705882%,23.921569%,33.72549%);fill-opacity:1;" d="M 6.710938 63.320312 L 6.984375 62.8125 L 19.875 69.710938 L 19.605469 70.222656 Z M 6.710938 63.320312 "/>
<path style=" stroke:none;fill-rule:nonzero;fill:rgb(42.352941%,38.823529%,100%);fill-opacity:1;" d="M 73.808594 47.859375 C 73.808594 25.867188 65.070312 8.042969 54.296875 8.042969 C 43.523438 8.042969 34.785156 25.867188 34.785156 47.859375 C 34.785156 69.847656 43.523438 87.675781 54.296875 87.675781 C 65.070312 87.675781 73.808594 69.847656 73.808594 47.859375 Z M 73.808594 47.859375 "/>
<path style=" stroke:none;fill-rule:nonzero;fill:rgb(24.705882%,23.921569%,33.72549%);fill-opacity:1;" d="M 56.574219 112.953125 C 48.773438 66.140625 56.496094 19.496094 56.574219 19.03125 L 57.144531 19.128906 C 57.0625 19.59375 49.359375 66.144531 57.144531 112.855469 Z M 56.574219 112.953125 "/>
<path style=" stroke:none;fill-rule:nonzero;fill:rgb(24.705882%,23.921569%,33.72549%);fill-opacity:1;" d="M 54.058594 49.160156 L 71.703125 39.722656 L 71.972656 40.230469 L 54.332031 49.667969 Z M 54.058594 49.160156 "/>
<path style=" stroke:none;fill-rule:nonzero;fill:rgb(24.705882%,23.921569%,33.72549%);fill-opacity:1;" d="M 35.4375 44.957031 L 35.710938 44.449219 L 53.351562 53.894531 L 53.078125 54.402344 Z M 35.4375 44.957031 "/>
<path style=" stroke:none;fill-rule:nonzero;fill:rgb(24.705882%,23.921569%,33.72549%);fill-opacity:1;" d="M 225.484375 88.3125 C 225.484375 80.097656 222.21875 73.4375 218.195312 73.4375 C 214.167969 73.4375 210.90625 80.097656 210.90625 88.3125 C 210.90625 96.53125 214.167969 103.191406 218.195312 103.191406 C 222.21875 103.191406 225.484375 96.53125 225.484375 88.3125 Z M 225.484375 88.3125 "/>
<path style=" stroke:none;fill-rule:nonzero;fill:rgb(42.352941%,38.823529%,100%);fill-opacity:1;" d="M 217.519531 112.664062 C 220.441406 95.144531 217.550781 77.6875 217.519531 77.511719 L 216.953125 77.609375 C 216.980469 77.78125 219.855469 95.148438 216.953125 112.570312 Z M 217.519531 112.664062 "/>
<path style=" stroke:none;fill-rule:nonzero;fill:rgb(42.352941%,38.823529%,100%);fill-opacity:1;" d="M 211.503906 85.621094 L 211.777344 85.113281 L 218.367188 88.640625 L 218.097656 89.148438 Z M 211.503906 85.621094 "/>
<path style=" stroke:none;fill-rule:nonzero;fill:rgb(42.352941%,38.823529%,100%);fill-opacity:1;" d="M 218.460938 90.410156 L 225.054688 86.882812 L 225.324219 87.390625 L 218.734375 90.917969 Z M 218.460938 90.410156 "/>
<path style=" stroke:none;fill-rule:nonzero;fill:rgb(42.352941%,38.823529%,100%);fill-opacity:1;" d="M 249.964844 65.371094 C 249.964844 49.300781 243.582031 36.273438 235.707031 36.273438 C 227.832031 36.273438 221.449219 49.300781 221.449219 65.371094 C 221.449219 81.441406 227.832031 94.46875 235.707031 94.46875 C 243.582031 94.46875 249.964844 81.441406 249.964844 65.371094 Z M 249.964844 65.371094 "/>
<path style=" stroke:none;fill-rule:nonzero;fill:rgb(24.705882%,23.921569%,33.72549%);fill-opacity:1;" d="M 234.121094 112.953125 C 239.824219 78.730469 234.175781 44.632812 234.121094 44.292969 L 233.550781 44.386719 C 233.609375 44.726562 239.238281 78.734375 233.550781 112.855469 Z M 234.121094 112.953125 "/>
<path style=" stroke:none;fill-rule:nonzero;fill:rgb(24.705882%,23.921569%,33.72549%);fill-opacity:1;" d="M 222.753906 59.863281 L 223.027344 59.355469 L 235.917969 66.253906 L 235.648438 66.761719 Z M 222.753906 59.863281 "/>
<path style=" stroke:none;fill-rule:nonzero;fill:rgb(24.705882%,23.921569%,33.72549%);fill-opacity:1;" d="M 236.363281 69.714844 L 249.253906 62.8125 L 249.523438 63.320312 L 236.632812 70.222656 Z M 236.363281 69.714844 "/>
<path style=" stroke:none;fill-rule:nonzero;fill:rgb(42.352941%,38.823529%,100%);fill-opacity:1;" d="M 221.449219 47.859375 C 221.449219 25.867188 212.714844 8.042969 201.941406 8.042969 C 191.164062 8.042969 182.429688 25.867188 182.429688 47.859375 C 182.429688 69.847656 191.164062 87.675781 201.941406 87.675781 C 212.714844 87.675781 221.449219 69.847656 221.449219 47.859375 Z M 221.449219 47.859375 "/>
<path style=" stroke:none;fill-rule:nonzero;fill:rgb(24.705882%,23.921569%,33.72549%);fill-opacity:1;" d="M 199.664062 112.953125 C 207.464844 66.140625 199.742188 19.496094 199.664062 19.03125 L 199.09375 19.128906 C 199.171875 19.59375 206.878906 66.144531 199.09375 112.855469 Z M 199.664062 112.953125 "/>
<path style=" stroke:none;fill-rule:nonzero;fill:rgb(24.705882%,23.921569%,33.72549%);fill-opacity:1;" d="M 184.265625 40.230469 L 184.535156 39.722656 L 202.179688 49.160156 L 201.90625 49.667969 Z M 184.265625 40.230469 "/>
<path style=" stroke:none;fill-rule:nonzero;fill:rgb(24.705882%,23.921569%,33.72549%);fill-opacity:1;" d="M 202.886719 53.894531 L 220.527344 44.449219 L 220.796875 44.957031 L 203.160156 54.402344 Z M 202.886719 53.894531 "/>
<path style=" stroke:none;fill-rule:nonzero;fill:rgb(24.705882%,23.921569%,33.72549%);fill-opacity:1;" d="M 147.695312 25.421875 L 150.003906 23.578125 C 148.210938 23.378906 147.476562 24.359375 147.171875 25.132812 C 145.773438 24.550781 144.25 25.3125 144.25 25.3125 L 148.863281 26.988281 C 148.632812 26.363281 148.226562 25.824219 147.695312 25.421875 Z M 147.695312 25.421875 "/>
<path style=" stroke:none;fill-rule:nonzero;fill:rgb(24.705882%,23.921569%,33.72549%);fill-opacity:1;" d="M 91.332031 9.136719 L 93.640625 7.292969 C 91.847656 7.09375 91.113281 8.070312 90.8125 8.84375 C 89.410156 8.261719 87.886719 9.027344 87.886719 9.027344 L 92.5 10.699219 C 92.269531 10.078125 91.863281 9.535156 91.332031 9.136719 Z M 91.332031 9.136719 "/>
<path style=" stroke:none;fill-rule:nonzero;fill:rgb(24.705882%,23.921569%,33.72549%);fill-opacity:1;" d="M 183.269531 1.871094 L 185.574219 0.0273438 C 183.78125 -0.171875 183.046875 0.804688 182.746094 1.578125 C 181.34375 0.996094 179.820312 1.757812 179.820312 1.757812 L 184.4375 3.433594 C 184.203125 2.8125 183.796875 2.269531 183.269531 1.871094 Z M 183.269531 1.871094 "/>
<path style=" stroke:none;fill-rule:nonzero;fill:rgb(24.705882%,23.921569%,33.72549%);fill-opacity:1;" d="M 187.921875 109.503906 C 187.3125 109.503906 186.707031 109.667969 186.175781 109.972656 C 185.078125 108.976562 183.492188 108.726562 182.136719 109.328125 C 180.777344 109.929688 179.90625 111.277344 179.90625 112.761719 L 191.417969 112.761719 C 191.289062 110.929688 189.761719 109.507812 187.921875 109.503906 Z M 187.921875 109.503906 "/>
<path style=" stroke:none;fill-rule:nonzero;fill:rgb(24.705882%,23.921569%,33.72549%);fill-opacity:1;" d="M 70.941406 109.503906 C 70.328125 109.503906 69.722656 109.667969 69.195312 109.972656 C 68.09375 108.976562 66.507812 108.726562 65.152344 109.328125 C 63.796875 109.929688 62.921875 111.277344 62.921875 112.761719 L 74.433594 112.761719 C 74.304688 110.929688 72.777344 109.507812 70.941406 109.503906 Z M 70.941406 109.503906 "/>
<path style=" stroke:none;fill-rule:nonzero;fill:rgb(24.705882%,23.921569%,33.72549%);fill-opacity:1;" d="M 130.808594 109.503906 C 130.195312 109.503906 129.59375 109.667969 129.0625 109.972656 C 127.960938 108.976562 126.378906 108.726562 125.019531 109.328125 C 123.664062 109.929688 122.792969 111.277344 122.792969 112.761719 L 134.304688 112.761719 C 134.171875 110.929688 132.648438 109.507812 130.808594 109.503906 Z M 130.808594 109.503906 "/>
<path style=" stroke:none;fill-rule:nonzero;fill:rgb(24.705882%,23.921569%,33.72549%);fill-opacity:1;" d="M 118.175781 101.28125 L 84.96875 101.28125 L 84.96875 102.351562 L 90.148438 102.351562 L 90.148438 112.53125 L 91.21875 112.53125 L 91.21875 102.351562 L 111.390625 102.351562 L 111.390625 112.53125 L 112.460938 112.53125 L 112.460938 102.351562 L 118.175781 102.351562 Z M 118.175781 101.28125 "/>
<path style=" stroke:none;fill-rule:nonzero;fill:rgb(24.705882%,23.921569%,33.72549%);fill-opacity:1;" d="M 85.03125 98.074219 L 118.242188 98.074219 L 118.242188 99.148438 L 85.03125 99.148438 Z M 85.03125 98.074219 "/>
<path style=" stroke:none;fill-rule:nonzero;fill:rgb(24.705882%,23.921569%,33.72549%);fill-opacity:1;" d="M 85.03125 95.398438 L 118.242188 95.398438 L 118.242188 96.46875 L 85.03125 96.46875 Z M 85.03125 95.398438 "/>
<path style=" stroke:none;fill-rule:nonzero;fill:rgb(24.705882%,23.921569%,33.72549%);fill-opacity:1;" d="M 85.03125 92.71875 L 118.242188 92.71875 L 118.242188 93.789062 L 85.03125 93.789062 Z M 85.03125 92.71875 "/>
<path style=" stroke:none;fill-rule:nonzero;fill:rgb(24.705882%,23.921569%,33.72549%);fill-opacity:1;" d="M 170.03125 101.28125 L 136.820312 101.28125 L 136.820312 102.351562 L 142 102.351562 L 142 112.53125 L 143.070312 112.53125 L 143.070312 102.351562 L 163.242188 102.351562 L 163.242188 112.53125 L 164.316406 112.53125 L 164.316406 102.351562 L 170.03125 102.351562 Z M 170.03125 101.28125 "/>
<path style=" stroke:none;fill-rule:nonzero;fill:rgb(24.705882%,23.921569%,33.72549%);fill-opacity:1;" d="M 136.886719 98.074219 L 170.09375 98.074219 L 170.09375 99.148438 L 136.886719 99.148438 Z M 136.886719 98.074219 "/>
<path style=" stroke:none;fill-rule:nonzero;fill:rgb(24.705882%,23.921569%,33.72549%);fill-opacity:1;" d="M 136.886719 95.398438 L 170.09375 95.398438 L 170.09375 96.46875 L 136.886719 96.46875 Z M 136.886719 95.398438 "/>
<path style=" stroke:none;fill-rule:nonzero;fill:rgb(24.705882%,23.921569%,33.72549%);fill-opacity:1;" d="M 136.886719 92.71875 L 170.09375 92.71875 L 170.09375 93.789062 L 136.886719 93.789062 Z M 136.886719 92.71875 "/>
</g>
</svg>
